<svg xmlns="http://www.w3.org/2000/svg" width="200" height="200" viewBox="0 0 200 200" fill="none">
<g transform="translate(0, 70)"><path fill="#E6D57E" d="m33.5 0 17.88 55.9H40.96L36.67 42h-18.4l2.87-9.25H33.8L26.54 9.32h-1.92L10.05 55.89H0L18.26 0H33.5ZM57.69 30.02h23.06v9.53H57.7v-9.53ZM107 47.24h11.02l-2.81 8.8H99.6L81.7.14H92.3L107 47.25ZM133.1.14l-14.05 43.4h-9.6L122.9.15h10.2Z"/><path fill="#E6D57E" d="M158.5.15V9.6l-28.71-.07V.14h28.72Z"/><path fill="#E6D57E" d="m200 9.54-41.5.07V.15L200 .07v9.47Zm-23.67 46.5V13.31h9.75v42.73h-9.75ZM127.87 40.22l28.98-27.36h11.53v1.26l-30.46 29.43-10.05-3.33Z"/><path fill="#E6D57E" d="m137.92 43.55-10.05-3.33v3.33h10.05ZM137.92 47.24h30.46v8.65h-40.51v-8.65h10.05Z"/>
</g>
</svg>
