<svg xmlns="http://www.w3.org/2000/svg" width="30" height="30" fill="none"><path fill="currentColor" d="M26.24 30H3.75a3.59 3.59 0 0 1-2.68-1.07A3.59 3.59 0 0 1 0 26.27V3.75a3.59 3.59 0 0 1 1.07-2.68A3.59 3.59 0 0 1 3.75 0h22.5a3.59 3.59 0 0 1 2.68 1.07A3.59 3.59 0 0 1 30 3.75v22.5A3.77 3.77 0 0 1 26.24 30Zm-5.96-6.08a3.45 3.45 0 0 0 2.14-.78 3.32 3.32 0 0 0 1.56-2.5 2.14 2.14 0 0 0-1.13-1.61 18.4 18.4 0 0 0-2.08-1.38 2.4 2.4 0 0 0-1.54-.66h-.47c-.29 0-.64.36-1.07 1.07a1.24 1.24 0 0 1-1.07.58c-.28 0-.56-.07-.82-.2a8.03 8.03 0 0 1-4.4-4.28c-.17-.3-.27-.64-.28-1l.06-.47c0-.24.26-.49.72-.76.27-.18.5-.4.71-.64.21-.27.31-.62.29-.96a4.7 4.7 0 0 0-.69-1.47c-1.32-2.03-2.4-3.05-3.2-3.05-.21 0-.42.03-.6.1-1.7.6-2.53 1.6-2.53 3.05.01.5.11 1 .3 1.48a23.78 23.78 0 0 0 13.24 13.24c.26.16.56.25.86.24ZM23.3 15c.27 0 .42-.09.45-.26a.76.76 0 0 0 0-.28v-.53c.01-1.4-.36-2.8-1.07-4a8.83 8.83 0 0 0-2.88-3.03 7.95 7.95 0 0 0-4.03-1.3h-.55c-.3 0-.46.18-.46.53a.33.33 0 0 0 .16.33c.12.06.24.09.37.1.11 0 .23.02.33.07 1.9.16 3.7.95 5.11 2.24a8.91 8.91 0 0 1 2.14 5.16l-.05.37c0 .14.02.28.05.42.06.07.19.18.43.18Zm-2.14-.86a.53.53 0 0 0 .36-.56v-.38a5.06 5.06 0 0 0-1.39-3.56 6.16 6.16 0 0 0-4.15-1.98h-.28c-.14 0-.23.23-.26.6-.03.36.23.4.7.4 1.2.16 2.32.67 3.22 1.47.72.85 1.17 1.9 1.27 3v.33c0 .14.03.28.08.42.03.17.2.23.48.23l-.03.03Zm-2.14-.7c.22 0 .36-.12.4-.27.03-.15.06-.3.06-.46a2.65 2.65 0 0 0-.86-1.85 2.52 2.52 0 0 0-1.82-.87h-.4a.44.44 0 0 0-.35.49c0 .23.18.38.53.46a1.95 1.95 0 0 1 1.87 2.01.55.55 0 0 0 .57.45v.04Z"/></svg>
