<svg xmlns="http://www.w3.org/2000/svg" width="30" height="30" fill="none"><path fill="currentColor" d="M26.24 30H3.75a3.59 3.59 0 0 1-2.68-1.07A3.59 3.59 0 0 1 0 26.27V3.75a3.59 3.59 0 0 1 1.07-2.68A3.59 3.59 0 0 1 3.75 0h22.5a3.59 3.59 0 0 1 2.68 1.07A3.59 3.59 0 0 1 30 3.75v22.5A3.77 3.77 0 0 1 26.24 30ZM15 20.86a.5.5 0 0 0 .4-.25h.07c.09-.21 1.6-2.51 4.57-6.9.48-.85.73-1.83.71-2.81a5.56 5.56 0 0 0-1.68-4.1A5.48 5.48 0 0 0 15 5.1a5.55 5.55 0 0 0-4.1 1.7 5.54 5.54 0 0 0-1.7 4.09c-.02 1.08.3 2.13.88 3.04.6.9 1.21 1.8 1.85 2.72l2.6 3.93a.55.55 0 0 0 .47.28Zm0 4.1c.6.02 1.19-.06 1.76-.23.49-.16.74-.35.74-.56 0-.21-.25-.42-.74-.58a5.63 5.63 0 0 0-1.76-.23c-.6-.02-1.19.06-1.76.23-.49.17-.74.36-.74.58 0 .21.25.4.74.56.57.17 1.17.25 1.76.23Zm.1-11.14a2.3 2.3 0 0 1-1.83-3.81 2.14 2.14 0 0 1 1.67-.82c.59-.01 1.16.2 1.6.6a2.14 2.14 0 0 1 .77 1.67c.02.6-.2 1.17-.59 1.61a2.26 2.26 0 0 1-1.64.75h.03Z"/></svg>
