<svg xmlns="http://www.w3.org/2000/svg" width="30" height="30" fill="none"><path fill="currentColor" d="M26.23 30H3.73a3.6 3.6 0 0 1-2.66-1.08A3.6 3.6 0 0 1 0 26.26V3.75A3.63 3.63 0 0 1 3.72 0h22.53a3.61 3.61 0 0 1 2.68 1.08A3.62 3.62 0 0 1 30 3.73v22.51a3.62 3.62 0 0 1-1.07 2.66 3.62 3.62 0 0 1-2.7 1.1Zm-5.77-7.23a.84.84 0 0 0 .92-.7L24.35 7.8a.6.6 0 0 0-.2-.5.66.66 0 0 0-.44-.18c-.05 0-5.96 2.2-17.72 6.58a.63.63 0 0 0-.44.63.62.62 0 0 0 .46.56l4.29 1.34 1.72 5.2a.67.67 0 0 0 .68.46.6.6 0 0 0 .43-.18l2.43-2.33 4.39 3.23c.15.1.33.16.51.16Zm-7.84-2.62-1.3-4.31c6.24-3.98 9.38-5.98 9.42-5.98.16 0 .25 0 .25.18a.2.2 0 0 1 0 .06s-2.7 2.48-8.06 7.32l-.3 2.73Z"/></svg>
