<svg xmlns="http://www.w3.org/2000/svg" width="21" height="21" fill="none"><path fill="currentColor" d="m0 21 .61-1.82c.4-1.16.8-2.32 1.18-3.49a.48.48 0 0 0-.03-.33A10.2 10.2 0 0 1 6.9.72c5.32-2.1 11.4.56 13.43 5.89a10.22 10.22 0 0 1-7.7 13.67c-2.34.46-4.57.11-6.7-.96a.6.6 0 0 0-.48-.04L.3 20.92 0 21Zm2.67-2.6 3.06-.98a.48.48 0 0 1 .43.05 8.15 8.15 0 0 0 3.4 1.2 8.5 8.5 0 0 0 6.41-1.74 8.48 8.48 0 0 0 2.4-10.48A8.6 8.6 0 0 0 6.17 3a8.46 8.46 0 0 0-2.84 11.58c.32.5.39.9.17 1.44-.32.75-.54 1.55-.82 2.38Z"/><path fill="currentColor" d="m7.45 5.25.36.02c.21 0 .37.1.44.3.3.74.59 1.5.86 2.24.1.26-.08.48-.23.66-.16.21-.35.4-.54.6-.16.16-.18.32-.08.51a7.17 7.17 0 0 0 3.53 3.25c.2.09.37.06.52-.1l.83-.97c.15-.18.31-.25.53-.14l2.2 1.13c.17.1.19.27.17.45-.11 1.19-.72 1.78-2.03 2.1-.86.2-1.6-.17-2.37-.44-2.24-.8-3.8-2.36-5.05-4.3a5.8 5.8 0 0 1-1-2.29 2.93 2.93 0 0 1 1.04-2.82.96.96 0 0 1 .82-.2Z"/></svg>
